<?xml version="1.0" encoding="UTF-8" standalone="no"?>
<svg
   xmlns:dc="http://purl.org/dc/elements/1.1/"
   xmlns:cc="http://creativecommons.org/ns#"
   xmlns:rdf="http://www.w3.org/1999/02/22-rdf-syntax-ns#"
   xmlns:svg="http://www.w3.org/2000/svg"
   xmlns="http://www.w3.org/2000/svg"
   height="24"
   width="24"
   id="svg2"
   xml:space="preserve"
   viewBox="0 0 24 24"
   y="0px"
   x="0px"
   version="1.1"><metadata
     id="metadata18"><rdf:RDF><cc:Work
         rdf:about=""><dc:format>image/svg+xml</dc:format><dc:type
           rdf:resource="http://purl.org/dc/dcmitype/StillImage" /><dc:title></dc:title></cc:Work></rdf:RDF></metadata><defs
     id="defs16" /><g
     transform="translate(2,2)"
     id="g4"><path
       id="path6"
       d="M 18,0 4,0 C 2.3,0 1,1.3 1,3 l 0,14 c 0,1.7 1.3,3 3,3 l 14,0 c 0.6,0 1,-0.4 1,-1 L 19,1 C 19,0.4 18.6,0 18,0 Z M 3,17 3,3 C 3,2.4 3.4,2 4,2 L 6,2 6,18 4,18 C 3.4,18 3,17.6 3,17 Z m 14,1 -9,0 0,-16 9,0 0,16 z" /><path
       id="path8"
       d="m 10,9 5,0 c 0.6,0 1,-0.4 1,-1 L 16,4 C 16,3.4 15.6,3 15,3 L 10,3 C 9.4,3 9,3.4 9,4 l 0,4 c 0,0.6 0.4,1 1,1 z m 1,-4 3,0 0,2 -3,0 0,-2 z" /></g></svg>